<?xml version="1.0" encoding="UTF-8" standalone="no"?>
<!-- Generator: Adobe Illustrator 16.0.0, SVG Export Plug-In . SVG Version: 6.00 Build 0)  -->

<svg
   xmlns:dc="http://purl.org/dc/elements/1.1/"
   xmlns:cc="http://creativecommons.org/ns#"
   xmlns:rdf="http://www.w3.org/1999/02/22-rdf-syntax-ns#"
   xmlns:svg="http://www.w3.org/2000/svg"
   xmlns="http://www.w3.org/2000/svg"
   xmlns:sodipodi="http://sodipodi.sourceforge.net/DTD/sodipodi-0.dtd"
   xmlns:inkscape="http://www.inkscape.org/namespaces/inkscape"
   version="1.1"
   id="Layer_1"
   x="0px"
   y="0px"
   width="32px"
   height="32px"
   viewBox="0 0 32 32"
   enable-background="new 0 0 32 32"
   xml:space="preserve"
   sodipodi:docname="zoom.svg"
   inkscape:version="0.92.2 (5c3e80d, 2017-08-06)"><metadata
     id="metadata8"><rdf:RDF><cc:Work
         rdf:about=""><dc:format>image/svg+xml</dc:format><dc:type
           rdf:resource="http://purl.org/dc/dcmitype/StillImage" /><dc:title></dc:title></cc:Work></rdf:RDF></metadata><defs
     id="defs6" /><sodipodi:namedview
     pagecolor="#ffffff"
     bordercolor="#666666"
     borderopacity="1"
     objecttolerance="10"
     gridtolerance="10"
     guidetolerance="10"
     inkscape:pageopacity="0"
     inkscape:pageshadow="2"
     inkscape:window-width="1920"
     inkscape:window-height="1017"
     id="namedview4"
     showgrid="false"
     inkscape:zoom="7.375"
     inkscape:cx="16.40678"
     inkscape:cy="18.983051"
     inkscape:window-x="-8"
     inkscape:window-y="-8"
     inkscape:window-maximized="1"
     inkscape:current-layer="Layer_1" /><g
     id="g172"
     transform="matrix(0.06121099,0,0,0.05931333,-6.8261953e-6,0.99603511)"><g
       id="g114"><g
         id="g112"><path
           id="path108"
           d="m 512.703,455.395 -75.353,-75.2 c -7.191,-7.19 -16.983,-10.557 -26.469,-10.098 L 374.619,333.836 C 436.354,252.211 430.082,135.471 355.723,61.037 274.405,-20.282 142.443,-20.282 61.124,61.19 c -81.473,81.472 -81.473,213.282 -0.153,294.601 74.435,74.435 191.174,80.631 272.799,18.896 l 36.261,36.262 c -0.459,9.485 2.907,19.277 10.098,26.469 l 75.2,75.199 c 13.464,13.464 35.419,13.464 48.883,0 l 8.339,-8.339 c 13.616,-13.464 13.616,-35.266 0.152,-48.883 z M 310.666,310.733 c -56.457,56.457 -148.18,56.61 -204.637,0.153 -56.457,-56.457 -56.457,-148.027 0.153,-204.638 56.457,-56.457 148.181,-56.61 204.638,-0.153 56.457,56.457 56.227,148.028 -0.154,204.638 z"
           inkscape:connector-curvature="0" /><path
           id="path110"
           d="m 265.072,186.727 h -34.119 v -34.119 c 0,-12.316 -9.945,-22.262 -22.108,-22.262 h -0.229 c -12.164,0 -22.108,9.945 -22.108,22.262 v 34.119 h -34.119 c -12.316,0 -22.261,9.945 -22.261,22.109 v 0.153 c 0,12.164 9.945,22.108 22.261,22.108 h 34.119 v 34.119 c 0,12.317 9.945,22.262 22.108,22.262 h 0.153 c 12.163,0 22.108,-9.944 22.108,-22.262 v -34.119 h 34.119 c 12.316,0 22.262,-9.945 22.262,-22.108 v -0.153 c 0.152,-12.164 -9.792,-22.109 -22.186,-22.109 z"
           inkscape:connector-curvature="0" /></g></g><g
       id="g116" /><g
       id="g118" /><g
       id="g120" /><g
       id="g122" /><g
       id="g124" /><g
       id="g126" /><g
       id="g128" /><g
       id="g130" /><g
       id="g132" /><g
       id="g134" /><g
       id="g136" /><g
       id="g138" /><g
       id="g140" /><g
       id="g142" /><g
       id="g144" /></g></svg>